<svg width="99" height="81" viewBox="0 0 99 81" fill="none" xmlns="http://www.w3.org/2000/svg">
<path d="M71.9074 50.5305V70.0656L70.4463 70.0771H62.3639L62.3523 68.6161V50.2521C62.3523 46.7968 60.9924 43.5537 58.523 41.1205C56.0544 38.6883 52.7961 37.3792 49.3333 37.4276C42.3679 37.531 36.7009 43.3863 36.7009 50.4802V70.0654L35.2399 70.077H27.1575L27.1459 68.6159V50.2521C27.1459 44.2442 29.5022 38.6006 33.7808 34.3607C38.0588 30.1217 43.7197 27.8179 49.7347 27.872C61.9607 27.9843 71.9074 38.1486 71.9074 50.5305Z" fill="black"/>
<path d="M49.618 13.6006C49.5867 13.6006 49.5569 13.6006 49.5255 13.6006C39.8595 13.6006 30.76 17.368 23.8969 24.2142C17.011 31.0828 13.2186 40.2081 13.2186 49.9083V68.6158L13.2302 70.0769H21.3124L22.7737 70.0653V49.9084C22.7737 42.7474 25.5778 36.0144 30.6695 30.9498C35.726 25.9203 42.4173 23.1557 49.5256 23.1557C49.574 23.1557 49.6228 23.1557 49.6711 23.156C64.3426 23.2342 76.2789 35.3797 76.2789 50.2301V68.616L76.2907 70.0771H84.3729L85.834 70.0655V50.2572C85.8344 30.094 69.5877 13.6499 49.618 13.6006Z" fill="black"/>
<path d="M85.3947 16.2485C74.4937 4.79155 59.17 -0.685663 43.3499 1.22262C34.4701 2.2934 26.0641 5.79212 19.0411 11.3408C6.97369 20.8746 0.0528564 35.083 0.0528564 50.3232V68.6159L0.064443 70.0769H8.14667L9.60793 70.0654V50.6927C9.60793 28.4854 27.5089 10.4123 49.5122 10.4047C49.5174 10.4047 49.5207 10.4047 49.5259 10.4047C60.1673 10.4047 70.1858 14.5602 77.734 22.1058C85.2857 29.6551 89.4449 39.676 89.4449 50.3233V68.616L89.4566 70.0771H97.5388L98.9999 70.0655V50.7105C99.0001 37.7088 94.1683 25.4702 85.3947 16.2485Z" fill="black"/>
<path d="M49.5266 59.6033C54.5585 59.6033 58.6376 55.5241 58.6376 50.4923C58.6376 45.4604 54.5585 41.3813 49.5266 41.3813C44.4948 41.3813 40.4156 45.4604 40.4156 50.4923C40.4156 55.5241 44.4948 59.6033 49.5266 59.6033Z" fill="black"/>
<path d="M4.55478 73.3725H1.40057V75.9899H4.30762V77.2105H1.40057V80.8543H0V72.1457H4.55478V73.3725Z" fill="black"/>
<path d="M13.6262 80.8543H8.95373V72.1457H10.3543V79.6336H13.6262V80.8543Z" fill="black"/>
<path d="M22.8212 72.1457L20.0554 77.6903V80.8543H18.6548V77.7206L15.9596 72.1457H17.5544L19.2139 75.8806C19.2335 75.9251 19.2923 76.0931 19.3904 76.3846H19.4081C19.4434 76.2551 19.5081 76.087 19.6023 75.8806L21.3383 72.1457H22.8212Z" fill="black"/>
<path d="M37.5568 73.3725H34.4026V75.9899H37.3097V77.2105H34.4026V80.8543H33.002V72.1457H37.5568V73.3725Z" fill="black"/>
<path d="M48.1583 80.8543H46.6224L45.8632 78.6377H42.5442L41.8145 80.8543H40.2845L43.4446 72.1457H45.0217L48.1583 80.8543ZM45.4925 77.4595L44.3214 73.9858C44.2861 73.8725 44.2489 73.6903 44.2096 73.4393H44.1861C44.1508 73.67 44.1115 73.8522 44.0684 73.9858L42.9091 77.4595H45.4925Z" fill="black"/>
<path d="M51.8275 80.5081V79.0202C51.957 79.1417 52.11 79.251 52.2865 79.3482C52.467 79.4453 52.6573 79.5283 52.8574 79.5972C53.0574 79.6619 53.2575 79.7126 53.4576 79.749C53.6577 79.7854 53.8421 79.8036 54.0108 79.8036C54.5992 79.8036 55.0367 79.7024 55.3231 79.5C55.6134 79.2976 55.7585 79.004 55.7585 78.6194C55.7585 78.413 55.7095 78.2348 55.6114 78.085C55.5173 77.9312 55.3839 77.7915 55.2112 77.666C55.0386 77.5405 54.8346 77.4211 54.5992 77.3077C54.3678 77.1903 54.1186 77.0688 53.8519 76.9433C53.5655 76.7854 53.2987 76.6255 53.0515 76.4636C52.8044 76.3016 52.5886 76.1235 52.4042 75.9291C52.2238 75.7308 52.0806 75.5081 51.9746 75.2611C51.8726 75.0142 51.8216 74.7247 51.8216 74.3927C51.8216 73.9838 51.9099 73.6296 52.0865 73.33C52.2669 73.0263 52.5023 72.7773 52.7926 72.583C53.0869 72.3846 53.4203 72.2389 53.793 72.1457C54.1657 72.0486 54.5463 72 54.9347 72C55.8174 72 56.4608 72.1032 56.8649 72.3097V73.7368C56.3862 73.3806 55.7703 73.2024 55.017 73.2024C54.8091 73.2024 54.6012 73.2227 54.3933 73.2632C54.1893 73.3036 54.0049 73.3704 53.8401 73.4636C53.6793 73.5567 53.5478 73.6761 53.4458 73.8219C53.3438 73.9676 53.2928 74.1437 53.2928 74.3502C53.2928 74.5445 53.3321 74.7126 53.4105 74.8543C53.489 74.996 53.6028 75.1255 53.7518 75.2429C53.9048 75.3603 54.0892 75.4757 54.305 75.5891C54.5247 75.6984 54.7777 75.8178 55.0641 75.9474C55.3584 76.1053 55.6349 76.2713 55.8939 76.4453C56.1567 76.6194 56.3862 76.8117 56.5824 77.0223C56.7825 77.2328 56.9394 77.4676 57.0532 77.7267C57.1709 77.9818 57.2297 78.2733 57.2297 78.6012C57.2297 79.0425 57.1434 79.415 56.9708 79.7186C56.7982 80.0223 56.5647 80.2692 56.2705 80.4595C55.9802 80.6498 55.6448 80.7874 55.2642 80.8725C54.8837 80.9575 54.4815 81 54.0578 81C53.9166 81 53.742 80.9879 53.5341 80.9636C53.3301 80.9433 53.1202 80.9109 52.9044 80.8664C52.6887 80.8259 52.4847 80.7753 52.2924 80.7146C52.1002 80.6538 51.9452 80.585 51.8275 80.5081Z" fill="black"/>
<path d="M68.455 80.8543H67.0485V77.0769H63.0763V80.8543H61.6757V72.1457H63.0763V75.8077H67.0485V72.1457H68.455V80.8543Z" fill="black"/>
<path d="M74.8665 80.8543H73.4247V72.1457H74.8665V80.8543Z" fill="black"/>
<path d="M83.32 81C82.1038 81 81.1289 80.5931 80.3953 79.7794C79.6656 78.9656 79.3007 77.9069 79.3007 76.6032C79.3007 75.2024 79.6734 74.085 80.4188 73.251C81.1642 72.417 82.1764 72 83.4554 72C84.6402 72 85.5935 72.4049 86.3153 73.2146C87.0411 74.0243 87.404 75.083 87.404 76.3907C87.404 77.8117 87.0333 78.9352 86.2918 79.7611C85.5503 80.587 84.5597 81 83.32 81ZM83.3847 73.2692C82.6119 73.2692 81.9822 73.5668 81.4957 74.1619C81.0132 74.7571 80.7719 75.5405 80.7719 76.5121C80.7719 77.4798 81.0073 78.2591 81.4781 78.8502C81.9489 79.4413 82.5648 79.7368 83.3259 79.7368C84.1341 79.7368 84.7716 79.4555 85.2384 78.8927C85.7053 78.33 85.9387 77.5425 85.9387 76.5304C85.9387 75.4899 85.7112 74.6862 85.2561 74.1194C84.8049 73.5526 84.1811 73.2692 83.3847 73.2692Z" fill="black"/>
<path d="M99 80.8543H97.47L93.4389 74.4534C93.3369 74.2915 93.2526 74.1235 93.1859 73.9494H93.1506C93.182 74.1356 93.1977 74.5344 93.1977 75.1457V80.8543H91.8442V72.1457H93.4742L97.3699 78.3947C97.5347 78.6538 97.6406 78.832 97.6877 78.9291H97.7112C97.672 78.6984 97.6524 78.3077 97.6524 77.7571V72.1457H99V80.8543Z" fill="black"/>
</svg>
